<svg width="186" height="186" viewBox="0 0 186 186" fill="none" xmlns="http://www.w3.org/2000/svg">
<g clip-path="url(#clip0_36_2380)">
<path d="M90.4344 17.6855C92.1239 17.3522 93.8676 17.3522 95.5649 17.6855C97.5101 18.0575 99.2771 18.9797 100.92 19.8322L101.331 20.0492L165.423 53.2192C166.369 53.7093 167.162 54.4499 167.716 55.3602C168.269 56.2705 168.562 57.3154 168.562 58.3807V119.59C168.562 121.783 168.578 124.108 167.841 126.271C167.193 128.154 166.15 129.877 164.78 131.324C163.191 132.982 161.114 134.044 159.177 135.044L158.689 135.299L95.6734 167.911C94.8471 168.34 93.9302 168.563 92.9996 168.563C92.0691 168.563 91.1521 168.34 90.3259 167.911L27.3106 135.299L26.8224 135.044C24.8849 134.044 22.8079 132.982 21.2191 131.324C19.8497 129.877 18.8058 128.154 18.1579 126.271C17.4216 124.101 17.4294 121.776 17.4371 119.582V58.3807C17.437 57.3154 17.7298 56.2705 18.2833 55.3602C18.8368 54.4499 19.6299 53.7093 20.5759 53.2192L84.6606 20.0492L85.0714 19.84C86.7221 18.9797 88.4814 18.0575 90.4344 17.6855ZM92.1859 29.2795C91.4493 29.6273 90.7206 29.9916 90.0004 30.3722L36.1766 58.2335L92.9996 86.0405L149.823 58.2335L95.9911 30.3722C95.2709 29.9916 94.5422 29.6273 93.8056 29.2795L93.3561 29.0935M87.1871 153.194V96.1387L29.0621 67.6962V119.032C29.0621 120.481 29.0621 121.311 29.1009 121.938L29.1706 122.543C29.2709 122.814 29.4207 123.063 29.6124 123.279C29.6511 123.31 29.7751 123.411 30.1084 123.605C30.6354 123.93 31.3716 124.302 32.6504 124.969L87.1871 153.194Z" fill="#FF6B00"/>
</g>
<defs>
<clipPath id="clip0_36_2380">
<rect width="186" height="186" fill="white"/>
</clipPath>
</defs>
</svg>
