<svg width="185" height="185" viewBox="0 0 185 185" fill="none" xmlns="http://www.w3.org/2000/svg">
<g clip-path="url(#clip0_36_2351)">
<path d="M75.1562 146.458C75.1562 145.436 75.5623 144.456 76.2851 143.733C77.0079 143.01 77.9882 142.604 79.0104 142.604H105.99C107.012 142.604 107.992 143.01 108.715 143.733C109.438 144.456 109.844 145.436 109.844 146.458C109.844 147.481 109.438 148.461 108.715 149.184C107.992 149.907 107.012 150.313 105.99 150.313H79.0104C77.9882 150.313 77.0079 149.907 76.2851 149.184C75.5623 148.461 75.1562 147.481 75.1562 146.458Z" fill="#FF6B00"/>
<path d="M78.3934 17.3438H106.606C110.73 17.3438 114.16 17.3437 116.974 17.575C119.903 17.8062 122.647 18.3304 125.245 19.6562C129.234 21.6887 132.478 24.9322 134.51 28.9217C135.836 31.5194 136.36 34.2635 136.591 37.1927C136.823 40.0062 136.823 43.4365 136.823 47.5604V137.44C136.823 141.564 136.823 144.994 136.591 147.807C136.36 150.736 135.836 153.481 134.51 156.078C132.48 160.067 129.239 163.31 125.252 165.344C122.647 166.67 119.903 167.194 116.974 167.425C114.16 167.656 110.73 167.656 106.614 167.656H78.3934C74.2695 167.656 70.8393 167.656 68.0257 167.425C65.0965 167.194 62.3524 166.67 59.7547 165.344C55.7675 163.315 52.5243 160.077 50.4893 156.094C49.1634 153.488 48.6393 150.744 48.408 147.815C48.1768 145.001 48.1768 141.571 48.1768 137.447V47.5604C48.1768 43.4365 48.1768 40.0062 48.408 37.1927C48.6393 34.2635 49.1634 31.5194 50.4893 28.9217C52.5217 24.9322 55.7652 21.6887 59.7547 19.6562C62.3524 18.3304 65.0965 17.8062 68.0257 17.575C70.8393 17.3437 74.2695 17.3438 78.3934 17.3438ZM68.9661 29.099C66.7538 29.2763 65.6978 29.6 65.004 29.9546C63.1881 30.8789 61.7119 32.3551 60.7876 34.171C60.433 34.8648 60.1093 35.9208 59.932 38.1331C59.747 40.4148 59.7393 43.3748 59.7393 47.7917V137.208C59.7393 141.618 59.7393 144.585 59.932 146.859C60.1093 149.079 60.433 150.135 60.7876 150.829C61.7126 152.648 63.1849 154.12 65.004 155.045C65.6978 155.4 66.7538 155.724 68.9661 155.901C71.2478 156.086 74.2078 156.094 78.6247 156.094H106.375C110.784 156.094 113.752 156.094 116.026 155.901C118.246 155.724 119.302 155.4 120.003 155.045C121.816 154.12 123.289 152.644 124.212 150.829C124.566 150.135 124.89 149.079 125.067 146.859C125.252 144.585 125.26 141.618 125.26 137.208V47.7917C125.26 43.3825 125.26 40.4148 125.067 38.1331C124.89 35.9208 124.566 34.8648 124.212 34.171C123.289 32.3562 121.816 30.8802 120.003 29.9546C119.302 29.6 118.246 29.2763 116.033 29.099C114.399 28.9819 112.761 28.9228 111.123 28.9217L110.167 31.7969C109.358 34.2173 108.949 35.4352 108.202 36.3294C107.541 37.1196 106.693 37.7318 105.735 38.11C104.64 38.5417 103.361 38.5417 100.802 38.5417H84.1978C81.6386 38.5417 80.359 38.5417 79.2645 38.11C78.3073 37.734 77.4593 37.1245 76.7978 36.3371C76.0501 35.4352 75.6416 34.2173 74.8322 31.7892L73.8763 28.9217C72.238 28.9228 70.6003 28.9819 68.9661 29.099Z" fill="#FF6B00"/>
</g>
<defs>
<clipPath id="clip0_36_2351">
<rect width="185" height="185" fill="white"/>
</clipPath>
</defs>
</svg>
