<svg width="210" height="210" viewBox="0 0 210 210" fill="none" xmlns="http://www.w3.org/2000/svg">
<g clip-path="url(#clip0_43_3603)">
<path fill-rule="evenodd" clip-rule="evenodd" d="M72.1873 52.6312V43.75C72.1873 35.0476 75.6443 26.7016 81.7978 20.5481C87.9514 14.3945 96.2974 10.9375 105 10.9375C113.702 10.9375 122.048 14.3945 128.202 20.5481C134.355 26.7016 137.812 35.0476 137.812 43.75V52.6312C149.074 52.9725 155.969 54.18 161.227 58.5462C168.516 64.6012 170.441 74.8387 174.282 95.3225L180.845 130.323C186.243 159.128 188.939 173.53 181.072 183.015C173.197 192.5 158.541 192.5 129.237 192.5H80.7623C51.4498 192.5 36.8023 192.5 28.9273 183.015C21.0523 173.53 23.7648 159.128 29.1548 130.323L35.7173 95.3225C39.5673 74.8475 41.4835 64.6012 48.7723 58.5462C54.031 54.18 60.926 52.9725 72.1873 52.6312ZM85.3123 43.75C85.3123 38.5286 87.3865 33.521 91.0786 29.8288C94.7707 26.1367 99.7783 24.0625 105 24.0625C110.221 24.0625 115.229 26.1367 118.921 29.8288C122.613 33.521 124.687 38.5286 124.687 43.75V52.5H85.3123V43.75Z" fill="#37B6FF"/>
</g>
<defs>
<clipPath id="clip0_43_3603">
<rect width="210" height="210" fill="white"/>
</clipPath>
</defs>
</svg>
