<svg width="148" height="144" viewBox="0 0 148 144" fill="none" xmlns="http://www.w3.org/2000/svg">
<g clip-path="url(#clip0_43_3608)">
<path fill-rule="evenodd" clip-rule="evenodd" d="M50.8747 36.09V30C50.8747 24.0326 53.3111 18.3097 57.6478 14.0901C61.9846 9.87053 67.8665 7.5 73.9997 7.5C80.1328 7.5 86.0147 9.87053 90.3515 14.0901C94.6883 18.3097 97.1247 24.0326 97.1247 30V36.09C105.061 36.324 109.921 37.152 113.627 40.146C118.764 44.298 120.12 51.318 122.827 65.364L127.452 89.364C131.257 109.116 133.157 118.992 127.613 125.496C122.063 132 111.734 132 91.0813 132H56.918C36.2597 132 25.9367 132 20.3867 125.496C14.8367 118.992 16.7483 109.116 20.547 89.364L25.172 65.364C27.8853 51.324 29.2358 44.298 34.3727 40.146C38.0788 37.152 42.9382 36.324 50.8747 36.09ZM60.1247 30C60.1247 26.4196 61.5865 22.9858 64.1886 20.4541C66.7906 17.9223 70.3198 16.5 73.9997 16.5C77.6796 16.5 81.2087 17.9223 83.8108 20.4541C86.4128 22.9858 87.8747 26.4196 87.8747 30V36H60.1247V30Z" fill="#FF6B00"/>
</g>
<defs>
<clipPath id="clip0_43_3608">
<rect width="148" height="144" fill="white"/>
</clipPath>
</defs>
</svg>
