<svg width="55" height="65" viewBox="0 0 55 65" fill="none" xmlns="http://www.w3.org/2000/svg">
<g clip-path="url(#clip0_70_199)">
<path d="M17.8752 5.41675H37.1252C44.4585 5.41675 50.4168 12.4584 50.4168 21.1251V43.8751C50.4168 48.0412 49.0165 52.0367 46.5238 54.9826C44.0311 57.9284 40.6503 59.5834 37.1252 59.5834H17.8752C10.5418 59.5834 4.5835 52.5418 4.5835 43.8751V21.1251C4.5835 16.959 5.98386 12.9635 8.47654 10.0176C10.9692 7.07173 14.35 5.41675 17.8752 5.41675ZM17.4168 10.8334C15.2288 10.8334 13.1304 11.8606 11.5832 13.6891C10.036 15.5176 9.16683 17.9976 9.16683 20.5834V44.4167C9.16683 49.8063 12.8564 54.1668 17.4168 54.1668H37.5835C39.7715 54.1668 41.87 53.1395 43.4171 51.311C44.9643 49.4826 45.8335 47.0026 45.8335 44.4167V20.5834C45.8335 15.1938 42.1439 10.8334 37.5835 10.8334H17.4168ZM39.5314 14.8959C40.2911 14.8959 41.0198 15.2526 41.557 15.8875C42.0942 16.5224 42.396 17.3835 42.396 18.2813C42.396 19.1792 42.0942 20.0403 41.557 20.6752C41.0198 21.3101 40.2911 21.6667 39.5314 21.6667C38.7717 21.6667 38.0431 21.3101 37.5058 20.6752C36.9686 20.0403 36.6668 19.1792 36.6668 18.2813C36.6668 17.3835 36.9686 16.5224 37.5058 15.8875C38.0431 15.2526 38.7717 14.8959 39.5314 14.8959ZM27.5002 18.9584C30.5391 18.9584 33.4536 20.3851 35.6024 22.9247C37.7513 25.4642 38.9585 28.9086 38.9585 32.5001C38.9585 36.0916 37.7513 39.5359 35.6024 42.0755C33.4536 44.615 30.5391 46.0418 27.5002 46.0418C24.4612 46.0418 21.5468 44.615 19.3979 42.0755C17.249 39.5359 16.0418 36.0916 16.0418 32.5001C16.0418 28.9086 17.249 25.4642 19.3979 22.9247C21.5468 20.3851 24.4612 18.9584 27.5002 18.9584ZM27.5002 24.3751C25.6768 24.3751 23.9281 25.2311 22.6388 26.7548C21.3495 28.2786 20.6252 30.3452 20.6252 32.5001C20.6252 34.655 21.3495 36.7216 22.6388 38.2453C23.9281 39.7691 25.6768 40.6251 27.5002 40.6251C29.3235 40.6251 31.0722 39.7691 32.3615 38.2453C33.6508 36.7216 34.3752 34.655 34.3752 32.5001C34.3752 30.3452 33.6508 28.2786 32.3615 26.7548C31.0722 25.2311 29.3235 24.3751 27.5002 24.3751Z" fill="white"/>
</g>
<defs>
<clipPath id="clip0_70_199">
<rect width="55" height="65" fill="white"/>
</clipPath>
</defs>
</svg>
