<svg width="183" height="36" viewBox="0 0 183 36" fill="none" xmlns="http://www.w3.org/2000/svg">
<path d="M8.50512 31.3112L10.8778 21.0539L2.92021 14.1549L13.433 13.2424L17.5213 3.56915L21.6096 13.2424L32.1223 14.1549L24.1648 21.0539L26.5374 31.3112L17.5213 25.8723L8.50512 31.3112Z" fill="#FFAE00"/>
<path d="M46.1434 31.3112L48.5161 21.0539L40.5585 14.1549L51.0713 13.2424L55.1596 3.56915L59.2479 13.2424L69.7606 14.1549L61.8031 21.0539L64.1757 31.3112L55.1596 25.8723L46.1434 31.3112Z" fill="#FFAE00"/>
<path d="M83.7817 30.6622L86.1544 20.405L78.1968 13.506L88.7096 12.5934L92.7979 2.92021L96.8862 12.5934L107.399 13.506L99.4414 20.405L101.814 30.6622L92.7979 25.2233L83.7817 30.6622Z" fill="#FFAE00"/>
<path d="M118.824 30.6622L121.197 20.405L113.239 13.506L123.752 12.5934L127.84 2.92021L131.929 12.5934L142.441 13.506L134.484 20.405L136.857 30.6622L127.84 25.2233L118.824 30.6622Z" fill="#FFAE00"/>
<path d="M156.463 31.3112L158.835 21.0539L150.878 14.1549L161.39 13.2424L165.479 3.56915L169.567 13.2424L180.08 14.1549L172.122 21.0539L174.495 31.3112L165.479 25.8723L156.463 31.3112Z" fill="#B8B8B8"/>
</svg>
