<svg width="29" height="29" viewBox="0 0 29 29" fill="none" xmlns="http://www.w3.org/2000/svg">
<g clip-path="url(#clip0_14_183)">
<path d="M12.3573 3.53065C10.0164 3.53065 7.77126 4.4606 6.11594 6.11592C4.46062 7.77124 3.53067 10.0163 3.53067 12.3573C3.53067 14.6983 4.46062 16.9434 6.11594 18.5987C7.77126 20.254 10.0164 21.184 12.3573 21.184C14.6983 21.184 16.9434 20.254 18.5987 18.5987C20.254 16.9434 21.184 14.6983 21.184 12.3573C21.184 10.0163 20.254 7.77124 18.5987 6.11592C16.9434 4.4606 14.6983 3.53065 12.3573 3.53065ZM3.894e-07 12.3573C3.72449e-06 10.4 0.464945 8.47072 1.35654 6.72829C2.24813 4.98586 3.54087 3.48014 5.1283 2.33512C6.71574 1.1901 8.55245 0.438544 10.4872 0.142332C12.422 -0.153881 14.3994 0.0137266 16.2567 0.631352C18.114 1.24898 19.798 2.29895 21.1701 3.69481C22.5421 5.09068 23.563 6.7925 24.1486 8.66014C24.7342 10.5278 24.8678 12.5078 24.5384 14.4372C24.209 16.3666 23.4259 18.1901 22.2538 19.7576L27.7281 25.2301L25.2319 27.7281L19.7594 22.2555C17.9226 23.6296 15.7396 24.4652 13.4548 24.6689C11.17 24.8726 8.87359 24.4364 6.82268 23.409C4.77176 22.3816 3.04728 20.8037 1.84231 18.8518C0.637332 16.8999 -0.000575367 14.6512 3.894e-07 12.3573Z" fill="black"/>
</g>
<defs>
<clipPath id="clip0_14_183">
<rect width="28.2453" height="28.2453" fill="white"/>
</clipPath>
</defs>
</svg>
