<svg width="47" height="60" viewBox="0 0 47 60" fill="none" xmlns="http://www.w3.org/2000/svg">
<path d="M24.6914 58.465L24.7171 58.4595C24.7373 58.4631 24.7505 58.4796 24.7567 58.509L24.7964 59.6832L24.7871 59.73L24.7591 59.774L24.5164 59.9775L24.4884 59.9885L24.4534 59.9775L24.2107 59.774L24.1874 59.7382L24.1757 59.6832L24.2154 58.5062L24.2247 58.4787C24.2372 58.4604 24.2559 58.4558 24.2807 58.465L24.4464 58.5612L24.4791 58.5722L24.5257 58.5612L24.6914 58.465Z" fill="white"/>
<path d="M25.3051 58.1542L25.3354 58.1487C25.3587 58.156 25.3743 58.1762 25.3821 58.2092L25.4614 59.8977L25.4521 59.9362C25.4365 59.96 25.414 59.9674 25.3844 59.9582L24.9154 59.7025L24.8967 59.6832L24.8851 59.6502L24.8431 58.4677L24.8501 58.4375L24.8734 58.41L25.3051 58.1542Z" fill="white"/>
<path d="M23.6328 58.1476C23.6445 58.1445 23.6568 58.1469 23.6671 58.1542L24.0964 58.4072L24.1197 58.4347L24.1267 58.4677L24.0871 59.6502L24.0777 59.6805L24.0544 59.7025L23.5854 59.9582L23.5504 59.9637C23.5255 59.9527 23.5123 59.9307 23.5107 59.8977L23.5901 58.2092L23.6041 58.1707C23.6108 58.1589 23.621 58.1506 23.6328 58.1476Z" fill="white"/>
<path fill-rule="evenodd" clip-rule="evenodd" d="M4.66667 27.5C4.667 23.2662 5.70386 19.1225 7.65284 15.5661C9.60181 12.0096 12.3801 9.19145 15.6544 7.44979C18.9286 5.70813 22.5597 5.11694 26.112 5.74715C29.6642 6.37737 32.9867 8.20222 35.6808 11.0027C38.3749 13.8032 40.3262 17.4605 41.3004 21.5355C42.2747 25.6106 42.2305 29.9305 41.1733 33.9767C40.1161 38.023 38.0907 41.6238 35.3401 44.347C32.5896 47.0703 29.2308 48.8003 25.6667 49.3295V33H30.3333C30.9522 33 31.5457 32.7103 31.9833 32.1945C32.4208 31.6788 32.6667 30.9793 32.6667 30.25C32.6667 29.5207 32.4208 28.8212 31.9833 28.3055C31.5457 27.7897 30.9522 27.5 30.3333 27.5H25.6667V22C25.6667 21.2707 25.9125 20.5712 26.3501 20.0555C26.7877 19.5397 27.3812 19.25 28 19.25H29.1667C29.7855 19.25 30.379 18.9603 30.8166 18.4445C31.2542 17.9288 31.5 17.2293 31.5 16.5C31.5 15.7707 31.2542 15.0712 30.8166 14.5555C30.379 14.0397 29.7855 13.75 29.1667 13.75H28C26.1435 13.75 24.363 14.6192 23.0503 16.1664C21.7375 17.7135 21 19.812 21 22V27.5H16.3333C15.7145 27.5 15.121 27.7897 14.6834 28.3055C14.2458 28.8212 14 29.5207 14 30.25C14 30.9793 14.2458 31.6788 14.6834 32.1945C15.121 32.7103 15.7145 33 16.3333 33H21V49.3295C16.4888 48.6596 12.3401 46.0722 9.33276 42.0529C6.32543 38.0336 4.66624 32.8588 4.66667 27.5ZM23.3333 55C36.2203 55 46.6667 42.6883 46.6667 27.5C46.6667 12.3118 36.2203 0 23.3333 0C10.4463 0 0 12.3118 0 27.5C0 42.6883 10.4463 55 23.3333 55Z" fill="white"/>
</svg>
