<svg width="44" height="44" viewBox="0 0 44 44" fill="none" xmlns="http://www.w3.org/2000/svg">
<g clip-path="url(#clip0_14_178)">
<path fill-rule="evenodd" clip-rule="evenodd" d="M15.125 11.0275V9.16663C15.125 7.34326 15.8493 5.59458 17.1386 4.30527C18.4279 3.01595 20.1766 2.29163 22 2.29163C23.8233 2.29163 25.572 3.01595 26.8613 4.30527C28.1507 5.59458 28.875 7.34326 28.875 9.16663V11.0275C31.2345 11.099 32.6791 11.352 33.781 12.2668C35.3081 13.5355 35.7115 15.6805 36.5163 19.9723L37.8913 27.3056C39.0225 33.341 39.5871 36.3586 37.939 38.346C36.289 40.3333 33.2181 40.3333 27.0783 40.3333H16.9216C10.78 40.3333 7.71098 40.3333 6.06098 38.346C4.41098 36.3586 4.97931 33.341 6.10864 27.3056L7.48364 19.9723C8.29031 15.6823 8.69181 13.5355 10.219 12.2668C11.3208 11.352 12.7655 11.099 15.125 11.0275ZM17.875 9.16663C17.875 8.07261 18.3096 7.0234 19.0832 6.24981C19.8567 5.47622 20.906 5.04163 22 5.04163C23.094 5.04163 24.1432 5.47622 24.9168 6.24981C25.6904 7.0234 26.125 8.07261 26.125 9.16663V11H17.875V9.16663Z" fill="white"/>
</g>
<defs>
<clipPath id="clip0_14_178">
<rect width="44" height="44" fill="white"/>
</clipPath>
</defs>
</svg>
