<svg width="29" height="27" viewBox="0 0 29 27" fill="none" xmlns="http://www.w3.org/2000/svg">
<path d="M24.7739 3.92856C23.4376 2.67861 21.8462 1.68752 20.0924 1.01306C18.3385 0.338596 16.4573 -0.00575526 14.5583 7.27583e-05C6.60151 7.27583e-05 0.116583 6.00756 0.116583 13.3785C0.116583 15.741 0.786935 18.036 2.0402 20.061L0 27L7.65075 25.137C9.76382 26.2035 12.1392 26.7705 14.5583 26.7705C22.5151 26.7705 29 20.763 29 13.392C29 9.81455 27.499 6.45306 24.7739 3.92856ZM14.5583 24.5025C12.4015 24.5025 10.2884 23.9625 8.43769 22.95L8.0005 22.707L3.45377 23.814L4.66332 19.71L4.37186 19.2915C3.17331 17.5191 2.53703 15.4701 2.53568 13.3785C2.53568 7.24956 7.92764 2.25457 14.5437 2.25457C17.7497 2.25457 20.7663 3.41556 23.0251 5.52156C24.1438 6.55277 25.0302 7.77949 25.6331 9.13054C26.236 10.4816 26.5433 11.9301 26.5372 13.392C26.5663 19.521 21.1744 24.5025 14.5583 24.5025ZM21.1452 16.1865C20.7809 16.0245 19.003 15.2145 18.6824 15.093C18.3472 14.985 18.1141 14.931 17.8663 15.255C17.6186 15.5925 16.9337 16.3485 16.7296 16.5645C16.5256 16.794 16.307 16.821 15.9427 16.6455C15.5784 16.4835 14.4126 16.119 13.0427 14.985C11.9643 14.094 11.2503 13.0005 11.0317 12.663C10.8276 12.3255 11.0025 12.15 11.192 11.9745C11.3523 11.826 11.5563 11.583 11.7312 11.394C11.906 11.205 11.9789 11.0565 12.0955 10.8405C12.2121 10.611 12.1538 10.422 12.0663 10.26C11.9789 10.098 11.2503 8.45105 10.9588 7.77605C10.6673 7.12805 10.3613 7.20905 10.1427 7.19555H9.44321C9.19548 7.19555 8.81658 7.27655 8.48141 7.61405C8.1608 7.95155 7.22814 8.76155 7.22814 10.4085C7.22814 12.0555 8.52513 13.6485 8.7 13.8645C8.87488 14.094 11.2503 17.469 14.8643 18.9135C15.7241 19.2645 16.3945 19.467 16.9191 19.6155C17.7789 19.872 18.5658 19.8315 19.1925 19.7505C19.892 19.656 21.3347 18.9405 21.6261 18.1575C21.9322 17.3745 21.9322 16.713 21.8302 16.5645C21.7281 16.416 21.5095 16.3485 21.1452 16.1865Z" fill="white"/>
</svg>
