<svg width="170" height="170" viewBox="0 0 170 170" fill="none" xmlns="http://www.w3.org/2000/svg">
<g clip-path="url(#clip0_36_2415)">
<path fill-rule="evenodd" clip-rule="evenodd" d="M129.699 21.25H40.3006L10.625 50.9256V148.75H159.375V50.9256L129.699 21.25ZM28.7619 47.8125L44.6994 31.875H125.301L141.238 47.8125H28.7619ZM71.2619 85L78.1363 78.1362L70.6244 70.6138L45.6131 95.625H106.25C107.659 95.625 109.01 96.1847 110.007 97.181C111.003 98.1773 111.562 99.5285 111.562 100.938C111.562 102.346 111.003 103.698 110.007 104.694C109.01 105.69 107.659 106.25 106.25 106.25H63.75V116.875H106.25C110.477 116.875 114.531 115.196 117.52 112.207C120.508 109.218 122.188 105.164 122.188 100.938C122.188 96.7106 120.508 92.6568 117.52 89.668C114.531 86.6791 110.477 85 106.25 85H71.2619Z" fill="#FF6B00"/>
</g>
<defs>
<clipPath id="clip0_36_2415">
<rect width="170" height="170" fill="white"/>
</clipPath>
</defs>
</svg>
